<svg width="76" height="24" viewBox="0 0 76 24" fill="none" xmlns="http://www.w3.org/2000/svg">
<g style="mix-blend-mode:luminosity" clip-path="url(#clip0_1607_5092)">
<path d="M40.0538 6.03003C40.0538 6.89489 39.3652 7.59159 38.5105 7.59159C37.6558 7.59159 36.9672 6.89489 36.9672 6.03003C36.9672 5.16516 37.632 4.46847 38.5105 4.46847C39.389 4.49249 40.0538 5.18919 40.0538 6.03003ZM33.6907 9.17718C33.6907 9.32132 33.6907 9.56156 33.6907 9.56156C33.6907 9.56156 32.9547 8.6006 31.3877 8.6006C28.7998 8.6006 26.7817 10.5946 26.7817 13.3574C26.7817 16.0961 28.776 18.1141 31.3877 18.1141C32.9785 18.1141 33.6907 17.1291 33.6907 17.1291V17.5375C33.6907 17.7297 33.8332 17.8739 34.0231 17.8739H35.9463V8.84084C35.9463 8.84084 34.1893 8.84084 34.0231 8.84084C33.8332 8.84084 33.6907 9.00901 33.6907 9.17718ZM33.6907 14.967C33.3346 15.4955 32.6223 15.952 31.7676 15.952C30.2481 15.952 29.0847 14.991 29.0847 13.3574C29.0847 11.7237 30.2481 10.7628 31.7676 10.7628C32.5986 10.7628 33.3584 11.2432 33.6907 11.7477V14.967ZM37.3708 8.84084H39.6501V17.8739H37.3708V8.84084ZM71.4177 8.6006C69.8507 8.6006 69.1147 9.56156 69.1147 9.56156V4.49249H66.8354V17.8739C66.8354 17.8739 68.5923 17.8739 68.7585 17.8739C68.9485 17.8739 69.0909 17.7057 69.0909 17.5375V17.1291C69.0909 17.1291 69.827 18.1141 71.394 18.1141C73.9819 18.1141 76 16.0961 76 13.3574C76 10.6186 73.9819 8.6006 71.4177 8.6006ZM71.0378 15.9279C70.1594 15.9279 69.4708 15.4715 69.1147 14.9429V11.7237C69.4708 11.2432 70.2306 10.7387 71.0378 10.7387C72.5574 10.7387 73.7207 11.6997 73.7207 13.3333C73.7207 14.967 72.5574 15.9279 71.0378 15.9279ZM65.6483 12.5165V17.8979H63.369V12.7808C63.369 11.2913 62.8941 10.6907 61.612 10.6907C60.9235 10.6907 60.2112 11.0511 59.7601 11.5796V17.8739H57.4808V8.84084H59.2853C59.4752 8.84084 59.6176 9.00901 59.6176 9.17718V9.56156C60.2824 8.86486 61.1609 8.6006 62.0394 8.6006C63.0366 8.6006 63.8676 8.88889 64.5324 9.46547C65.3396 10.1381 65.6483 11.003 65.6483 12.5165ZM51.9488 8.6006C50.3818 8.6006 49.6458 9.56156 49.6458 9.56156V4.49249H47.3665V17.8739C47.3665 17.8739 49.1234 17.8739 49.2896 17.8739C49.4796 17.8739 49.622 17.7057 49.622 17.5375V17.1291C49.622 17.1291 50.358 18.1141 51.9251 18.1141C54.513 18.1141 56.5311 16.0961 56.5311 13.3574C56.5549 10.6186 54.5367 8.6006 51.9488 8.6006ZM51.5689 15.9279C50.6904 15.9279 50.0019 15.4715 49.6458 14.9429V11.7237C50.0019 11.2432 50.7617 10.7387 51.5689 10.7387C53.0884 10.7387 54.2518 11.6997 54.2518 13.3333C54.2518 14.967 53.0884 15.9279 51.5689 15.9279ZM45.3958 8.6006C46.0844 8.6006 46.4405 8.72072 46.4405 8.72072V10.8589C46.4405 10.8589 44.5411 10.2102 43.354 11.5796V17.8979H41.0747V8.84084C41.0747 8.84084 42.8316 8.84084 42.9978 8.84084C43.1878 8.84084 43.3302 9.00901 43.3302 9.17718V9.56156C43.7576 9.05706 44.6836 8.6006 45.3958 8.6006ZM21.7245 17.0571C21.6058 16.7688 21.4871 16.4565 21.3683 16.1922C21.1784 15.7598 20.9885 15.3514 20.8223 14.967L20.7985 14.9429C19.1603 11.3393 17.4033 7.68769 15.5514 4.08408L15.4802 3.93994C15.2902 3.57958 15.1003 3.19519 14.9104 2.81081C14.6729 2.37838 14.4355 1.92192 14.0556 1.48949C13.2959 0.528528 12.2037 0 11.0403 0C9.8532 0 8.78478 0.528529 8.00128 1.44144C7.64514 1.87387 7.38397 2.33033 7.14654 2.76276C6.9566 3.14715 6.76666 3.53153 6.57672 3.89189L6.50549 4.03604C4.67731 7.63964 2.89662 11.2913 1.25838 14.8949L1.23464 14.9429C1.06844 15.3273 0.878501 15.7357 0.68856 16.1682C0.569847 16.4324 0.451134 16.7207 0.332422 17.033C0.023768 17.9219 -0.0712023 18.7628 0.0475106 19.6276C0.308679 21.4294 1.49581 22.9429 3.13405 23.6156C3.75135 23.8799 4.3924 24 5.0572 24C5.24714 24 5.48456 23.976 5.6745 23.952C6.45801 23.8559 7.26526 23.5916 8.04876 23.1351C9.02221 22.5826 9.94817 21.7898 10.9928 20.6366C12.0375 21.7898 12.9872 22.5826 13.9369 23.1351C14.7204 23.5916 15.5277 23.8559 16.3112 23.952C16.5011 23.976 16.7385 24 16.9285 24C17.5933 24 18.2581 23.8799 18.8516 23.6156C20.5136 22.9429 21.677 21.4054 21.9382 19.6276C22.1281 18.7868 22.0331 17.9459 21.7245 17.0571ZM11.0166 18.3063C9.73448 16.6727 8.90349 15.1351 8.61858 13.8378C8.49987 13.2853 8.47613 12.8048 8.54736 12.3724C8.59484 11.988 8.7373 11.6517 8.92724 11.3634C9.37835 10.7147 10.1381 10.3063 11.0166 10.3063C11.8951 10.3063 12.6786 10.6907 13.1059 11.3634C13.2959 11.6517 13.4383 11.988 13.4858 12.3724C13.557 12.8048 13.5333 13.3093 13.4146 13.8378C13.1297 15.1111 12.2987 16.6486 11.0166 18.3063ZM20.4899 19.4354C20.3237 20.6847 19.4927 21.7658 18.3293 22.2462C17.7595 22.4865 17.1422 22.5586 16.5249 22.4865C15.9313 22.4144 15.3377 22.2222 14.7204 21.8619C13.8657 21.3814 13.011 20.6366 12.0138 19.5315C13.5808 17.5856 14.5305 15.8078 14.8866 14.2222C15.0528 13.4775 15.0766 12.8048 15.0053 12.1802C14.9104 11.5796 14.6967 11.027 14.3643 10.5465C13.6283 9.46547 12.3937 8.84084 11.0166 8.84084C9.63951 8.84084 8.4049 9.48949 7.66888 10.5465C7.33648 11.027 7.1228 11.5796 7.02783 12.1802C6.93286 12.8048 6.9566 13.5015 7.14654 14.2222C7.50268 15.8078 8.47613 17.6096 10.0194 19.5556C9.04595 20.6607 8.16747 21.4054 7.31274 21.8859C6.69543 22.2462 6.10187 22.4384 5.5083 22.5105C4.86725 22.5826 4.24995 22.4865 3.70387 22.2703C2.54048 21.7898 1.70949 20.7087 1.54329 19.4595C1.47207 18.8589 1.51955 18.2583 1.75698 17.5856C1.8282 17.3453 1.94692 17.1051 2.06563 16.8168C2.23183 16.4324 2.42177 16.024 2.61171 15.6156L2.63545 15.5676C4.27369 11.988 6.03064 8.33634 7.85882 4.78078L7.93005 4.63664C8.11999 4.27628 8.30993 3.89189 8.49987 3.53153C8.68981 3.14715 8.90349 2.78679 9.16466 2.47447C9.66326 1.8979 10.328 1.58559 11.0641 1.58559C11.8001 1.58559 12.4649 1.8979 12.9635 2.47447C13.2246 2.78679 13.4383 3.14715 13.6283 3.53153C13.8182 3.89189 14.0081 4.27628 14.1981 4.63664L14.2693 4.78078C16.0738 8.36036 17.8307 12.012 19.4689 15.5916V15.6156C19.6589 16 19.8251 16.4324 20.015 16.8168C20.1337 17.1051 20.2524 17.3453 20.3237 17.5856C20.5136 18.2102 20.5848 18.8108 20.4899 19.4354Z" fill="#A9A9A9"/>
</g>
<defs>
<clipPath id="clip0_1607_5092">
<rect width="76" height="24" fill="white"/>
</clipPath>
</defs>
</svg>
