<svg width="32" height="32" viewBox="0 0 32 32" fill="none" xmlns="http://www.w3.org/2000/svg">
<g clip-path="url(#clip0_1304_14056)">
<path d="M24.7958 17.3851L23.2125 11.6884C22.7484 10.0195 21.7398 8.55364 20.3469 7.52379C18.9541 6.49394 17.257 5.95922 15.5254 6.00462C13.7938 6.05002 12.127 6.67294 10.79 7.77436C9.45308 8.87578 8.52266 10.3925 8.14665 12.0834L6.92082 17.5959C6.78541 18.205 6.78854 18.8368 6.92998 19.4445C7.07141 20.0522 7.34754 20.6205 7.73797 21.1072C8.1284 21.5939 8.62317 21.9868 9.18574 22.2567C9.74832 22.5266 10.3643 22.6668 10.9883 22.6667H11.9167C12.1079 23.6086 12.6189 24.4555 13.3631 25.0637C14.1073 25.672 15.0389 26.0042 16 26.0042C16.9611 26.0042 17.8927 25.672 18.6369 25.0637C19.381 24.4555 19.8921 23.6086 20.0833 22.6667H20.7817C21.424 22.6668 22.0576 22.5183 22.6331 22.2329C23.2086 21.9476 23.7103 21.533 24.099 21.0216C24.4877 20.5103 24.753 19.9159 24.874 19.2851C24.995 18.6543 24.9685 18.004 24.7967 17.3851H24.7958ZM16 24.3334C15.4848 24.3313 14.9828 24.17 14.5627 23.8717C14.1427 23.5733 13.8251 23.1525 13.6533 22.6667H18.3467C18.1749 23.1525 17.8573 23.5733 17.4372 23.8717C17.0172 24.17 16.5152 24.3313 16 24.3334ZM22.7717 20.0126C22.5394 20.3206 22.2386 20.5703 21.893 20.7417C21.5474 20.9131 21.1666 21.0016 20.7808 21.0001H10.9883C10.614 21 10.2444 20.9159 9.90694 20.7539C9.56945 20.5919 9.27266 20.3562 9.03845 20.0641C8.80425 19.7721 8.63862 19.4312 8.55379 19.0666C8.46895 18.702 8.46709 18.323 8.54832 17.9576L9.77332 12.4442C10.0686 11.1161 10.7994 9.92474 11.8495 9.05961C12.8997 8.19448 14.2088 7.70521 15.569 7.66958C16.9291 7.63395 18.2621 8.054 19.3561 8.86296C20.4501 9.67192 21.2422 10.8234 21.6067 12.1342L23.19 17.8309C23.2946 18.202 23.3113 18.5925 23.2387 18.9712C23.166 19.3499 23.0061 19.7064 22.7717 20.0126Z" fill="#111111"/>
</g>
<defs>
<clipPath id="clip0_1304_14056">
<rect width="20" height="20" fill="white" transform="translate(6 6)"/>
</clipPath>
</defs>
</svg>
