<svg width="20" height="10" viewBox="0 0 20 10" fill="none" xmlns="http://www.w3.org/2000/svg">
  <g transform="scale(-1, 1) translate(-20, 0)">
    <path d="M18.4961 3.47116L15.5395 0.631455C15.4685 0.563383 15.384 0.509353 15.2909 0.472481C15.1978 0.435609 15.0979 0.416626 14.9971 0.416626C14.8962 0.416626 14.7964 0.435609 14.7033 0.472481C14.6102 0.509353 14.5257 0.563383 14.4546 0.631455V0.631455C14.3124 0.76753 14.2325 0.951604 14.2325 1.14347C14.2325 1.33534 14.3124 1.51942 14.4546 1.65549L17.1744 4.2628H1.59698C1.39436 4.2628 1.20004 4.33932 1.05677 4.47552C0.913498 4.61172 0.833008 4.79645 0.833008 4.98907H0.833008C0.833008 5.18168 0.913498 5.36641 1.05677 5.50262C1.20004 5.63882 1.39436 5.71533 1.59698 5.71533H17.2202L14.4546 8.33716C14.383 8.40468 14.3262 8.48501 14.2874 8.57351C14.2486 8.66201 14.2287 8.75694 14.2287 8.85281C14.2287 8.94869 14.2486 9.04362 14.2874 9.13212C14.3262 9.22062 14.383 9.30095 14.4546 9.36847C14.5257 9.43654 14.6102 9.49057 14.7033 9.52744C14.7964 9.56431 14.8962 9.58329 14.9971 9.58329C15.0979 9.58329 15.1978 9.56431 15.2909 9.52744C15.384 9.49057 15.4685 9.43654 15.5395 9.36847L18.4961 6.55054C18.9253 6.14202 19.1663 5.58824 19.1663 5.01085C19.1663 4.43347 18.9253 3.87969 18.4961 3.47116V3.47116Z" fill="#0464CB"/>
  </g>
</svg>
