<svg width="57" height="40" viewBox="0 0 57 40" fill="none" xmlns="http://www.w3.org/2000/svg">
<path d="M56.5307 14.4219L53.2494 6.21875C52.9711 5.5247 52.4907 4.93022 51.8706 4.51234C51.2504 4.09446 50.5191 3.87243 49.7713 3.875H41.6666V2C41.6666 1.50272 41.4691 1.02581 41.1175 0.674175C40.7658 0.322544 40.2889 0.125 39.7916 0.125H4.16663C3.17206 0.125 2.21824 0.520088 1.51498 1.22335C0.811714 1.92661 0.416626 2.88044 0.416626 3.875V30.125C0.416626 31.1196 0.811714 32.0734 1.51498 32.7766C2.21824 33.4799 3.17206 33.875 4.16663 33.875H8.151C8.56407 35.4883 9.50232 36.9182 10.8178 37.9393C12.1334 38.9604 13.7513 39.5147 15.4166 39.5147C17.0819 39.5147 18.6999 38.9604 20.0154 37.9393C21.3309 36.9182 22.2692 35.4883 22.6823 33.875H34.401C34.8141 35.4883 35.7523 36.9182 37.0678 37.9393C38.3834 38.9604 40.0013 39.5147 41.6666 39.5147C43.3319 39.5147 44.9499 38.9604 46.2654 37.9393C47.5809 36.9182 48.5192 35.4883 48.9323 33.875H52.9166C53.9112 33.875 54.865 33.4799 55.5683 32.7766C56.2715 32.0734 56.6666 31.1196 56.6666 30.125V15.125C56.6673 14.884 56.6211 14.6452 56.5307 14.4219ZM41.6666 7.625H49.7713L52.0213 13.25H41.6666V7.625ZM4.16663 3.875H37.9166V18.875H4.16663V3.875ZM15.4166 35.75C14.6749 35.75 13.9499 35.5301 13.3332 35.118C12.7166 34.706 12.2359 34.1203 11.9521 33.4351C11.6682 32.7498 11.594 31.9958 11.7387 31.2684C11.8834 30.541 12.2405 29.8728 12.765 29.3484C13.2894 28.8239 13.9576 28.4667 14.685 28.3221C15.4125 28.1774 16.1665 28.2516 16.8517 28.5355C17.5369 28.8193 18.1226 29.2999 18.5346 29.9166C18.9467 30.5333 19.1666 31.2583 19.1666 32C19.1666 32.9946 18.7715 33.9484 18.0683 34.6516C17.365 35.3549 16.4112 35.75 15.4166 35.75ZM34.401 30.125H22.6823C22.2692 28.5117 21.3309 27.0818 20.0154 26.0607C18.6999 25.0395 17.0819 24.4853 15.4166 24.4853C13.7513 24.4853 12.1334 25.0395 10.8178 26.0607C9.50232 27.0818 8.56407 28.5117 8.151 30.125H4.16663V22.625H37.9166V25.5102C37.0544 26.0085 36.2997 26.673 35.6963 27.4652C35.0928 28.2574 34.6525 29.1614 34.401 30.125ZM41.6666 35.75C40.9249 35.75 40.1999 35.5301 39.5832 35.118C38.9666 34.706 38.4859 34.1203 38.2021 33.4351C37.9183 32.7498 37.844 31.9958 37.9887 31.2684C38.1334 30.541 38.4905 29.8728 39.015 29.3484C39.5394 28.8239 40.2076 28.4667 40.935 28.3221C41.6625 28.1774 42.4165 28.2516 43.1017 28.5355C43.7869 28.8193 44.3726 29.2999 44.7846 29.9166C45.1967 30.5333 45.4166 31.2583 45.4166 32C45.4166 32.9946 45.0215 33.9484 44.3183 34.6516C43.615 35.3549 42.6612 35.75 41.6666 35.75ZM52.9166 30.125H48.9323C48.5142 28.5156 47.5742 27.0904 46.2594 26.0725C44.9447 25.0546 43.3294 24.5016 41.6666 24.5V17H52.9166V30.125Z" fill="#0060C9"/>
</svg>
