<svg width="12" height="7" viewBox="0 0 12 7" fill="none" xmlns="http://www.w3.org/2000/svg">
<path d="M11.0324 1.15752C10.9626 1.08722 10.8797 1.03143 10.7883 0.993349C10.6969 0.955272 10.5989 0.935669 10.4999 0.935669C10.4009 0.935669 10.3028 0.955272 10.2114 0.993349C10.12 1.03143 10.0371 1.08722 9.96736 1.15752L6.53236 4.59251C6.46264 4.66281 6.37969 4.7186 6.28829 4.75668C6.1969 4.79475 6.09887 4.81436 5.99986 4.81436C5.90085 4.81436 5.80282 4.79475 5.71143 4.75668C5.62004 4.7186 5.53708 4.66281 5.46736 4.59251L2.03236 1.15752C1.96264 1.08722 1.87969 1.03143 1.78829 0.993349C1.6969 0.955272 1.59887 0.935669 1.49986 0.935669C1.40085 0.935669 1.30282 0.955272 1.21143 0.993349C1.12003 1.03143 1.03708 1.08722 0.967362 1.15752C0.827674 1.29804 0.749268 1.48813 0.749268 1.68627C0.749268 1.88441 0.827674 2.07449 0.967362 2.21502L4.40986 5.65751C4.83174 6.07886 5.40361 6.31553 5.99986 6.31553C6.59611 6.31553 7.16799 6.07886 7.58986 5.65751L11.0324 2.21502C11.1721 2.07449 11.2505 1.88441 11.2505 1.68627C11.2505 1.48813 11.1721 1.29804 11.0324 1.15752Z" fill="#0464CB"/>
</svg>
