<svg width="6" height="13" viewBox="0 0 6 13" fill="none" xmlns="http://www.w3.org/2000/svg">
<path d="M0.246498 0.735473C0.168391 0.812942 0.106396 0.905108 0.0640888 1.00666C0.0217816 1.10821 0 1.21713 0 1.32714C0 1.43715 0.0217816 1.54607 0.0640888 1.64762C0.106396 1.74917 0.168391 1.84134 0.246498 1.9188L4.06316 5.73547C4.14126 5.81294 4.20326 5.90511 4.24557 6.00666C4.28787 6.10821 4.30966 6.21713 4.30966 6.32714C4.30966 6.43715 4.28787 6.54607 4.24557 6.64762C4.20326 6.74917 4.14126 6.84134 4.06316 6.91881L0.246498 10.7355C0.168391 10.8129 0.106396 10.9051 0.0640888 11.0067C0.0217816 11.1082 0 11.2171 0 11.3271C0 11.4371 0.0217816 11.5461 0.0640888 11.6476C0.106396 11.7492 0.168391 11.8413 0.246498 11.9188C0.402633 12.074 0.613842 12.1611 0.833997 12.1611C1.05415 12.1611 1.26536 12.074 1.4215 11.9188L5.24649 8.09381C5.71466 7.62505 5.97762 6.98964 5.97762 6.32714C5.97762 5.66464 5.71466 5.02922 5.24649 4.56047L1.4215 0.735473C1.26536 0.580263 1.05415 0.493144 0.833997 0.493144C0.613842 0.493144 0.402633 0.580263 0.246498 0.735473Z" fill="#0060C9"/>
</svg>
