<svg width="18" height="20" viewBox="0 0 18 20" fill="none" xmlns="http://www.w3.org/2000/svg">
<path d="M9.83348 16.6667C10.9381 16.6654 11.9972 16.2259 12.7783 15.4448C13.5594 14.6637 13.9988 13.6047 14.0001 12.5V5.20251C14.0014 4.76448 13.9158 4.33055 13.7481 3.92586C13.5805 3.52118 13.3342 3.1538 13.0235 2.84501L11.1551 0.976681C10.8464 0.665993 10.479 0.419683 10.0743 0.252031C9.66961 0.0843791 9.23568 -0.00128163 8.79764 1.44913e-05H4.83348C3.72881 0.00133771 2.66977 0.440749 1.88866 1.22186C1.10754 2.00298 0.668132 3.06202 0.666809 4.16668V12.5C0.668132 13.6047 1.10754 14.6637 1.88866 15.4448C2.66977 16.2259 3.72881 16.6654 4.83348 16.6667H9.83348ZM2.33348 12.5V4.16668C2.33348 3.50364 2.59687 2.86776 3.06571 2.39891C3.53455 1.93007 4.17043 1.66668 4.83348 1.66668C4.83348 1.66668 8.93264 1.67835 9.00014 1.68668V3.33335C9.00014 3.77538 9.17574 4.1993 9.4883 4.51186C9.80086 4.82442 10.2248 5.00001 10.6668 5.00001H12.3135C12.3218 5.06751 12.3335 12.5 12.3335 12.5C12.3335 13.1631 12.0701 13.7989 11.6012 14.2678C11.1324 14.7366 10.4965 15 9.83348 15H4.83348C4.17043 15 3.53455 14.7366 3.06571 14.2678C2.59687 13.7989 2.33348 13.1631 2.33348 12.5ZM17.3335 6.66668V15.8333C17.3322 16.938 16.8927 17.997 16.1116 18.7782C15.3305 19.5593 14.2715 19.9987 13.1668 20H5.66681C5.4458 20 5.23383 19.9122 5.07755 19.7559C4.92127 19.5997 4.83348 19.3877 4.83348 19.1667C4.83348 18.9457 4.92127 18.7337 5.07755 18.5774C5.23383 18.4211 5.4458 18.3333 5.66681 18.3333H13.1668C13.8299 18.3333 14.4657 18.07 14.9346 17.6011C15.4034 17.1323 15.6668 16.4964 15.6668 15.8333V6.66668C15.6668 6.44567 15.7546 6.23371 15.9109 6.07743C16.0672 5.92114 16.2791 5.83335 16.5001 5.83335C16.7212 5.83335 16.9331 5.92114 17.0894 6.07743C17.2457 6.23371 17.3335 6.44567 17.3335 6.66668Z" fill="#111111"/>
</svg>
