<svg width="32" height="32" viewBox="0 0 32 32" fill="none" xmlns="http://www.w3.org/2000/svg">
<path d="M20.4726 14.1972C20.4106 14.1347 20.3369 14.0851 20.2556 14.0513C20.1744 14.0174 20.0872 14 19.9992 14C19.9112 14 19.8241 14.0174 19.7428 14.0513C19.6616 14.0851 19.5879 14.1347 19.5259 14.1972L16.4726 17.2505C16.4106 17.313 16.3369 17.3626 16.2556 17.3965C16.1744 17.4303 16.0872 17.4477 15.9992 17.4477C15.9112 17.4477 15.8241 17.4303 15.7428 17.3965C15.6616 17.3626 15.5879 17.313 15.5259 17.2505L12.4726 14.1972C12.4106 14.1347 12.3369 14.0851 12.2556 14.0513C12.1744 14.0174 12.0872 14 11.9992 14C11.9112 14 11.8241 14.0174 11.7428 14.0513C11.6616 14.0851 11.5879 14.1347 11.5259 14.1972C11.4017 14.3221 11.332 14.4911 11.332 14.6672C11.332 14.8433 11.4017 15.0123 11.5259 15.1372L14.5859 18.1972C14.9609 18.5717 15.4692 18.7821 15.9992 18.7821C16.5292 18.7821 17.0376 18.5717 17.4126 18.1972L20.4726 15.1372C20.5967 15.0123 20.6664 14.8433 20.6664 14.6672C20.6664 14.4911 20.5967 14.3221 20.4726 14.1972Z" fill="white"/>
</svg>
