<svg width="12" height="7" viewBox="0 0 12 7" fill="none" xmlns="http://www.w3.org/2000/svg">
<path d="M11.5914 0.841713C11.514 0.763606 11.4218 0.701611 11.3202 0.659304C11.2187 0.616996 11.1098 0.595215 10.9998 0.595215C10.8898 0.595215 10.7808 0.616996 10.6793 0.659304C10.5777 0.701611 10.4856 0.763606 10.4081 0.841713L6.59143 4.65837C6.51396 4.73648 6.4218 4.79847 6.32025 4.84078C6.2187 4.88309 6.10978 4.90487 5.99977 4.90487C5.88976 4.90487 5.78083 4.88309 5.67929 4.84078C5.57774 4.79847 5.48557 4.73648 5.4081 4.65837L1.59143 0.841713C1.51396 0.763606 1.4218 0.701611 1.32025 0.659304C1.2187 0.616996 1.10978 0.595215 0.999765 0.595215C0.889755 0.595215 0.780834 0.616996 0.679285 0.659304C0.577735 0.701611 0.485568 0.763606 0.408099 0.841713C0.252889 0.997848 0.165771 1.20906 0.165771 1.42921C0.165771 1.64937 0.252889 1.86058 0.408099 2.01671L4.2331 5.8417C4.70185 6.30987 5.33726 6.57283 5.99977 6.57283C6.66227 6.57283 7.29768 6.30987 7.76643 5.8417L11.5914 2.01671C11.7466 1.86058 11.8338 1.64937 11.8338 1.42921C11.8338 1.20906 11.7466 0.997848 11.5914 0.841713Z" fill="#1E1E1E"/>
</svg>
