<svg width="22" height="24" viewBox="0 0 22 24" fill="none" xmlns="http://www.w3.org/2000/svg">
<path d="M0.0958305 1.12952C0.0395254 1.33014 0 1.54539 0 1.79214V22.1066C0 22.35 0.0380339 22.5641 0.0932203 22.7621L11.4206 11.9603L0.0958305 1.12952Z" fill="#48A0DC"/>
<path d="M2.61679 0.340498C2.08954 0.0168735 1.56974 -0.0641265 1.13086 0.0476235L12.5056 10.9264L15.8421 7.74525L2.61679 0.340498Z" fill="#88C057"/>
<path d="M20.7182 10.4753L17.1877 8.49866L13.5723 11.9464L17.2556 15.4699L20.6909 13.5713C22.3663 12.6102 21.7544 11.0614 20.7182 10.4753Z" fill="#FFCC66"/>
<path d="M12.4866 12.9799L1.09766 23.8391C1.54325 23.9647 2.07498 23.8901 2.61566 23.5582L15.8824 16.2274L12.4866 12.9799Z" fill="#ED7161"/>
</svg>
