<svg width="78" height="24" viewBox="0 0 78 24" fill="none" xmlns="http://www.w3.org/2000/svg">
<g style="mix-blend-mode:luminosity" clip-path="url(#clip0_1607_5102)">
<path d="M10.1592 8.56364V11.1273H16.3787C16.2135 12.5455 15.7182 13.6364 14.9476 14.3455C14.067 15.2182 12.636 16.2 10.1592 16.2C6.36151 16.2 3.38939 13.1455 3.38939 9.38182C3.38939 5.61818 6.30647 2.56364 10.1592 2.56364C12.1957 2.56364 13.7368 3.38182 14.8376 4.41818L16.6539 2.61818C15.1128 1.14545 13.0213 0 10.1592 0C4.93049 0 0.527344 4.2 0.527344 9.38182C0.527344 14.5636 4.93049 18.7636 10.1592 18.7636C12.9662 18.7636 15.1128 17.8364 16.7639 16.1455C18.4702 14.4545 19.0206 12.0545 19.0206 10.1455C19.0206 9.54545 18.9655 9 18.9105 8.56364H10.1592Z" fill="#A9A9A9"/>
<path d="M26.7269 6.43628C23.3695 6.43628 20.5625 8.99992 20.5625 12.4908C20.5625 15.9817 23.3145 18.5454 26.7269 18.5454C30.1393 18.5454 32.8913 16.0363 32.8913 12.5454C32.8913 8.99992 30.1393 6.43628 26.7269 6.43628ZM26.7269 16.1999C24.8556 16.1999 23.2594 14.6726 23.2594 12.5454C23.2594 10.3636 24.8556 8.89082 26.7269 8.89082C28.5982 8.89082 30.1944 10.3636 30.1944 12.5454C30.1944 14.6726 28.5982 16.1999 26.7269 16.1999Z" fill="#A9A9A9"/>
<path d="M56.8334 7.79992H56.7234C56.1179 7.09082 54.9621 6.43628 53.476 6.43628C50.3938 6.43628 47.752 9.05446 47.752 12.4908C47.752 15.8726 50.3938 18.5454 53.476 18.5454C54.9621 18.5454 56.1179 17.8908 56.7234 17.1817H56.8334V18.0545C56.8334 20.3454 55.5675 21.5999 53.5861 21.5999C51.9349 21.5999 50.9442 20.4545 50.5039 19.4181L48.1923 20.3999C48.8527 21.9817 50.669 23.9999 53.6412 23.9999C56.7784 23.9999 59.4753 22.1454 59.4753 17.6726V6.76355H56.9435V7.79992H56.8334ZM53.7512 16.1999C51.8799 16.1999 50.5039 14.6181 50.5039 12.5454C50.5039 10.4181 51.9349 8.89082 53.7512 8.89082C55.5675 8.89082 56.9986 10.4726 56.9986 12.5999C57.0536 14.6726 55.6226 16.1999 53.7512 16.1999Z" fill="#A9A9A9"/>
<path d="M40.43 6.43628C37.0726 6.43628 34.2656 8.99992 34.2656 12.4908C34.2656 15.9817 37.0176 18.5454 40.43 18.5454C43.8425 18.5454 46.5944 16.0363 46.5944 12.5454C46.5944 8.99992 43.8425 6.43628 40.43 6.43628ZM40.43 16.1999C38.5587 16.1999 36.9626 14.6726 36.9626 12.5454C36.9626 10.3636 38.5587 8.89082 40.43 8.89082C42.3014 8.89082 43.8975 10.3636 43.8975 12.5454C43.8975 14.6726 42.3014 16.1999 40.43 16.1999Z" fill="#A9A9A9"/>
<path d="M61.5117 0.272705H64.1536V18.6H61.5117V0.272705Z" fill="#A9A9A9"/>
<path d="M72.2985 16.2C70.9225 16.2 69.9868 15.6 69.3263 14.3455L77.5272 11.0182L77.252 10.3091C76.7566 8.94549 75.1605 6.4364 72.0233 6.4364C68.886 6.4364 66.2441 8.89095 66.2441 12.4909C66.2441 15.8728 68.831 18.5455 72.2985 18.5455C75.1055 18.5455 76.7016 16.8546 77.4171 15.8728L75.3256 14.5091C74.6101 15.5455 73.6744 16.2 72.2985 16.2ZM72.1333 8.72731C73.2341 8.72731 74.1698 9.27276 74.445 10.0364L68.9411 12.3273C68.886 9.81822 70.7574 8.72731 72.1333 8.72731Z" fill="#A9A9A9"/>
</g>
<defs>
<clipPath id="clip0_1607_5102">
<rect width="77" height="24" fill="white" transform="translate(0.527344)"/>
</clipPath>
</defs>
</svg>
