<svg width="20" height="10" viewBox="0 0 20 10" fill="none" xmlns="http://www.w3.org/2000/svg">
<path d="M1.50362 3.47129L4.46019 0.631577C4.53121 0.563505 4.61571 0.509475 4.70881 0.472603C4.80191 0.435731 4.90176 0.416748 5.00261 0.416748C5.10347 0.416748 5.20332 0.435731 5.29642 0.472603C5.38952 0.509475 5.47401 0.563505 5.54503 0.631577V0.631577C5.68733 0.767652 5.76719 0.951727 5.76719 1.1436C5.76719 1.33547 5.68733 1.51954 5.54503 1.65562L2.82529 4.26292H18.4027C18.6053 4.26292 18.7996 4.33944 18.9429 4.47564C19.0862 4.61184 19.1667 4.79657 19.1667 4.98919V4.98919C19.1667 5.18181 19.0862 5.36654 18.9429 5.50274C18.7996 5.63894 18.6053 5.71546 18.4027 5.71546H2.77945L5.54503 8.33729C5.61664 8.4048 5.67348 8.48513 5.71226 8.57363C5.75105 8.66213 5.77102 8.75706 5.77102 8.85294C5.77102 8.94881 5.75105 9.04374 5.71226 9.13224C5.67348 9.22075 5.61664 9.30107 5.54503 9.36859C5.47401 9.43666 5.38952 9.49069 5.29642 9.52756C5.20332 9.56443 5.10347 9.58342 5.00261 9.58342C4.90176 9.58342 4.80191 9.56443 4.70881 9.52756C4.61571 9.49069 4.53121 9.43666 4.46019 9.36859L1.50362 6.55067C1.07442 6.14214 0.833338 5.58836 0.833338 5.01098C0.833338 4.43359 1.07442 3.87981 1.50362 3.47129V3.47129Z" fill="#3C3C43" fill-opacity="0.6"/>
</svg>
