<svg
        width="20"
        height="10"
        viewBox="0 0 20 10"
        fill="none"
        xmlns="http://www.w3.org/2000/svg"
      >
        <path
          d="M16.9623 3.47129L14.0058 0.631577C13.9348 0.563505 13.8503 0.509475 13.7572 0.472603C13.6641 0.435731 13.5642 0.416748 13.4634 0.416748C13.3625 0.416748 13.2626 0.435731 13.1695 0.472603C13.0764 0.509475 12.9919 0.563505 12.9209 0.631577V0.631577C12.7786 0.767652 12.6987 0.951727 12.6987 1.1436C12.6987 1.33547 12.7786 1.51954 12.9209 1.65562L15.6406 4.26292H0.0631538C-0.139504 4.26292 -0.333783 4.33944 -0.477058 4.47564C-0.620333 4.61184 -0.700856 4.79657 -0.700856 4.98919V4.98919C-0.700856 5.18181 -0.620333 5.36654 -0.477058 5.50274C-0.333783 5.63894 -0.139504 5.71546 0.0631538 5.71546H15.6865L12.9209 8.33729C12.8493 8.4048 12.7925 8.48513 12.7537 8.57363C12.7149 8.66213 12.6949 8.75706 12.6949 8.85294C12.6949 8.94881 12.7149 9.04374 12.7537 9.13224C12.7925 9.22075 12.8493 9.30107 12.9209 9.36859C12.9919 9.43666 13.0764 9.49069 13.1695 9.52756C13.2626 9.56443 13.3625 9.58342 13.4634 9.58342C13.5642 9.58342 13.6641 9.56443 13.7572 9.52756C13.8503 9.49069 13.9348 9.43666 14.0058 9.36859L16.9623 6.55067C17.3915 6.14214 17.6326 5.58836 17.6326 5.01098C17.6326 4.43359 17.3915 3.87981 16.9623 3.47129V3.47129Z"
          fill="#3C3C43"
          fill-opacity="0.6"
        />
      </svg>