<svg width="44" height="31" viewBox="0 0 44 31" fill="none" xmlns="http://www.w3.org/2000/svg">
<path d="M40.9177 1.12364L15.5828 26.4566C15.4125 26.6276 15.2101 26.7633 14.9872 26.8559C14.7643 26.9485 14.5253 26.9962 14.2839 26.9962C14.0425 26.9962 13.8036 26.9485 13.5806 26.8559C13.3577 26.7633 13.1553 26.6276 12.985 26.4566L3.18766 16.6501C3.01732 16.4791 2.8149 16.3434 2.592 16.2509C2.36909 16.1583 2.13011 16.1106 1.88874 16.1106C1.64737 16.1106 1.40838 16.1583 1.18548 16.2509C0.962582 16.3434 0.760157 16.4791 0.589823 16.6501C0.418816 16.8205 0.283126 17.0229 0.19054 17.2458C0.0979535 17.4687 0.050293 17.7077 0.050293 17.9491C0.050293 18.1904 0.0979535 18.4294 0.19054 18.6523C0.283126 18.8752 0.418816 19.0776 0.589823 19.248L10.3908 29.0471C11.4247 30.0791 12.8259 30.6587 14.2867 30.6587C15.7475 30.6587 17.1486 30.0791 18.1825 29.0471L43.5155 3.71964C43.6862 3.54934 43.8217 3.34703 43.9141 3.12429C44.0065 2.90156 44.0541 2.66278 44.0541 2.42164C44.0541 2.18049 44.0065 1.94171 43.9141 1.71898C43.8217 1.49625 43.6862 1.29394 43.5155 1.12364C43.3452 0.95263 43.1427 0.81694 42.9198 0.724354C42.6969 0.631767 42.4579 0.584106 42.2166 0.584106C41.9752 0.584106 41.7362 0.631767 41.5133 0.724354C41.2904 0.81694 41.088 0.95263 40.9177 1.12364Z" fill="#3ECC48"/>
</svg>
