<svg width="62" height="86" viewBox="0 0 62 86" fill="none" xmlns="http://www.w3.org/2000/svg">
<path opacity="0.14" d="M16.816 83.1228C16.816 82.9807 16.816 82.7676 16.816 82.4834C16.9135 82.1282 16.9623 81.8795 16.9623 81.7374C18.1321 75.2723 19.4481 68.6296 20.9104 61.8093C22.4701 54.9179 24.2248 48.0621 26.1745 41.2418C28.1242 34.3504 30.3664 27.5656 32.9009 20.8874C35.4355 14.1381 38.3113 7.60194 41.5283 1.27893C42.3082 0.923707 43.0393 0.639527 43.7217 0.426392C44.4041 0.142212 45.2327 0.00012207 46.2075 0.00012207C46.8899 0.00012207 47.5236 0.177735 48.1085 0.53296C48.6934 0.888185 48.9858 1.3855 48.9858 2.02491V2.45118C48.9858 2.59327 48.9371 2.69983 48.8396 2.77088C45.7201 9.5912 42.7469 16.5891 39.9198 23.7647C37.0928 30.8692 34.4607 37.9737 32.0236 45.0782C29.684 52.1116 27.4906 59.0741 25.4434 65.9654C23.3962 72.8568 21.544 79.535 19.8868 86.0001C18.717 86.0001 17.8884 85.7159 17.4009 85.1476C17.011 84.5082 16.816 83.8333 16.816 83.1228ZM0 23.1253C0 21.4912 0.194969 19.9283 0.584906 18.4363C1.07233 16.9444 1.8522 15.63 2.92453 14.4933C3.99686 13.3566 5.41038 12.4685 7.16509 11.8291C8.91981 11.1187 11.1132 10.7634 13.7453 10.7634C14.9151 10.7634 16.1336 10.9766 17.4009 11.4028C18.7657 11.8291 19.9843 12.3975 21.0566 13.1079C22.1289 13.8184 22.9575 14.6354 23.5425 15.559C24.2248 16.4115 24.566 17.3351 24.566 18.3297C24.566 19.6796 24.1761 21.3492 23.3962 23.3384C22.6164 25.2566 21.4953 27.1393 20.033 28.9865C18.6682 30.8337 17.011 32.3967 15.0613 33.6755C13.2091 34.9543 11.1132 35.5937 8.77358 35.5937C6.53145 35.5937 4.82547 35.1319 3.65566 34.2083C2.48585 33.2847 1.60849 32.1835 1.02358 30.9047C0.536164 29.5549 0.243711 28.205 0.146226 26.8551C0.0487421 25.4342 0 24.191 0 23.1253ZM44.8915 58.7188C44.8915 58.0084 44.8428 56.8361 44.7453 55.2021C44.7453 53.5681 44.8915 51.8985 45.184 50.1934C45.5739 48.4173 46.2075 46.8898 47.0849 45.611C48.0597 44.2612 49.5708 43.5862 51.6179 43.5862C53.3726 43.5862 54.8836 43.9415 56.1509 44.6519C57.5157 45.2913 58.5881 46.1439 59.3679 47.2095C60.2453 48.2042 60.8789 49.3054 61.2689 50.5131C61.7563 51.7209 62 52.8221 62 53.8167C62 55.0955 61.7075 56.552 61.1226 58.186C60.6352 59.82 59.8553 61.4185 58.783 62.9815C57.8082 64.5445 56.5409 65.8589 54.9811 66.9245C53.4214 67.9192 51.6667 68.4165 49.717 68.4165C48.0597 68.4165 46.8899 68.0613 46.2075 67.3508C45.5252 66.6404 45.0377 65.7878 44.7453 64.7932C44.5503 63.7275 44.5016 62.6618 44.5991 61.5962C44.794 60.4594 44.8915 59.5003 44.8915 58.7188ZM13.1604 14.9196C11.6006 14.9196 10.3821 15.6656 9.50472 17.1575C8.72484 18.5784 8.13994 20.2124 7.75 22.0596C7.45755 23.8357 7.31132 25.5763 7.31132 27.2814V30.7981C8.96855 30.7981 10.577 30.4074 12.1368 29.6259C13.794 28.8444 15.2563 27.8853 16.5236 26.7486C17.7909 25.5408 18.8145 24.262 19.5943 22.9121C20.3742 21.4912 20.7642 20.2124 20.7642 19.0757C20.7642 18.3653 20.5204 17.7614 20.033 17.2641C19.5456 16.6957 18.9119 16.2694 18.1321 15.9853C17.3522 15.63 16.5236 15.3814 15.6462 15.2393C14.7689 15.0261 13.9403 14.9196 13.1604 14.9196ZM50.5943 58.6123C50.5943 59.2517 50.6431 59.82 50.7406 60.3173C50.9355 60.7436 51.5692 61.0988 52.6415 61.383C53.9088 59.9621 54.8349 58.8254 55.4198 57.9729C56.1022 57.0493 56.4434 55.9126 56.4434 54.5627C56.4434 53.7102 56.2972 53.0352 56.0047 52.5379C55.8097 51.9696 55.3223 51.2591 54.5425 50.4066C53.5676 50.7618 52.7877 51.2591 52.2028 51.8985C51.7154 52.5379 51.3255 53.2484 51.033 54.0299C50.8381 54.8114 50.6918 55.6284 50.5943 56.4809C50.5943 57.2624 50.5943 57.9729 50.5943 58.6123Z" fill="white"/>
</svg>
