<svg width="24" height="23" viewBox="0 0 24 23" fill="none" xmlns="http://www.w3.org/2000/svg">
<g clip-path="url(#clip0_129_11092)">
<path d="M1.61002 4.55991H4.20067C4.40391 5.30769 4.84755 5.96782 5.46317 6.43845C6.07878 6.90908 6.83215 7.16406 7.60705 7.16406C8.38196 7.16406 9.13533 6.90908 9.75094 6.43845C10.3666 5.96782 10.8102 5.30769 11.0134 4.55991H22.4413C22.6924 4.55991 22.9332 4.46015 23.1108 4.28258C23.2884 4.10501 23.3881 3.86417 23.3881 3.61304C23.3881 3.36191 23.2884 3.12107 23.1108 2.9435C22.9332 2.76592 22.6924 2.66616 22.4413 2.66616H11.0134C10.8102 1.91839 10.3666 1.25826 9.75094 0.787628C9.13533 0.316997 8.38196 0.0620117 7.60705 0.0620117C6.83215 0.0620117 6.07878 0.316997 5.46317 0.787628C4.84755 1.25826 4.40391 1.91839 4.20067 2.66616H1.61002C1.3589 2.66616 1.11805 2.76592 0.94048 2.9435C0.762907 3.12107 0.663147 3.36191 0.663147 3.61304C0.663147 3.86417 0.762907 4.10501 0.94048 4.28258C1.11805 4.46015 1.3589 4.55991 1.61002 4.55991V4.55991ZM7.60658 1.95601C7.93431 1.95601 8.25468 2.05319 8.52718 2.23527C8.79968 2.41734 9.01206 2.67614 9.13748 2.97892C9.2629 3.2817 9.29571 3.61488 9.23177 3.93631C9.16784 4.25774 9.01002 4.553 8.77828 4.78474C8.54654 5.01648 8.25128 5.17429 7.92985 5.23823C7.60842 5.30217 7.27525 5.26935 6.97246 5.14394C6.66968 5.01852 6.41089 4.80613 6.22881 4.53364C6.04673 4.26114 5.94955 3.94077 5.94955 3.61304C5.95005 3.17372 6.12479 2.75254 6.43544 2.44189C6.74608 2.13125 7.16726 1.95651 7.60658 1.95601V1.95601Z" fill="#333333"/>
<path d="M22.4413 10.4771H19.8506C19.6477 9.72919 19.2043 9.06883 18.5887 8.598C17.9731 8.12718 17.2197 7.87207 16.4447 7.87207C15.6697 7.87207 14.9163 8.12718 14.3007 8.598C13.6852 9.06883 13.2417 9.72919 13.0388 10.4771H1.61002C1.3589 10.4771 1.11805 10.5769 0.94048 10.7545C0.762907 10.932 0.663147 11.1729 0.663147 11.424C0.663147 11.6751 0.762907 11.916 0.94048 12.0936C1.11805 12.2711 1.3589 12.3709 1.61002 12.3709H13.0388C13.2417 13.1188 13.6852 13.7792 14.3007 14.25C14.9163 14.7209 15.6697 14.976 16.4447 14.976C17.2197 14.976 17.9731 14.7209 18.5887 14.25C19.2043 13.7792 19.6477 13.1188 19.8506 12.3709H22.4413C22.6924 12.3709 22.9332 12.2711 23.1108 12.0936C23.2884 11.916 23.3881 11.6751 23.3881 11.424C23.3881 11.1729 23.2884 10.932 23.1108 10.7545C22.9332 10.5769 22.6924 10.4771 22.4413 10.4771ZM16.4447 13.081C16.117 13.081 15.7966 12.9839 15.5241 12.8018C15.2516 12.6197 15.0392 12.3609 14.9138 12.0581C14.7884 11.7553 14.7556 11.4222 14.8195 11.1007C14.8835 10.7793 15.0413 10.4841 15.273 10.2523C15.5048 10.0206 15.8 9.86276 16.1214 9.79882C16.4429 9.73489 16.776 9.7677 17.0788 9.89312C17.3816 10.0185 17.6404 10.2309 17.8225 10.5034C18.0046 10.7759 18.1017 11.0963 18.1017 11.424C18.1012 11.8633 17.9265 12.2845 17.6159 12.5952C17.3052 12.9058 16.884 13.0805 16.4447 13.081V13.081Z" fill="#333333"/>
<path d="M22.4413 18.2897H11.0134C10.8102 17.5419 10.3666 16.8818 9.75094 16.4112C9.13533 15.9405 8.38196 15.6855 7.60705 15.6855C6.83215 15.6855 6.07878 15.9405 5.46317 16.4112C4.84755 16.8818 4.40391 17.5419 4.20067 18.2897H1.61002C1.3589 18.2897 1.11805 18.3894 0.94048 18.567C0.762907 18.7446 0.663147 18.9854 0.663147 19.2366C0.663147 19.4877 0.762907 19.7285 0.94048 19.9061C1.11805 20.0837 1.3589 20.1834 1.61002 20.1834H4.20067C4.40391 20.9312 4.84755 21.5913 5.46317 22.062C6.07878 22.5326 6.83215 22.7876 7.60705 22.7876C8.38196 22.7876 9.13533 22.5326 9.75094 22.062C10.3666 21.5913 10.8102 20.9312 11.0134 20.1834H22.4413C22.6924 20.1834 22.9332 20.0837 23.1108 19.9061C23.2884 19.7285 23.3881 19.4877 23.3881 19.2366C23.3881 18.9854 23.2884 18.7446 23.1108 18.567C22.9332 18.3894 22.6924 18.2897 22.4413 18.2897ZM7.60658 20.8936C7.27885 20.8936 6.95848 20.7964 6.68598 20.6143C6.41349 20.4323 6.2011 20.1735 6.07568 19.8707C5.95027 19.5679 5.91745 19.2347 5.98139 18.9133C6.04533 18.5919 6.20314 18.2966 6.43488 18.0649C6.66662 17.8331 6.96188 17.6753 7.28331 17.6114C7.60474 17.5474 7.93792 17.5803 8.2407 17.7057C8.54348 17.8311 8.80228 18.0435 8.98435 18.316C9.16643 18.5885 9.26361 18.9088 9.26361 19.2366C9.26286 19.6758 9.08804 20.0968 8.77745 20.4074C8.46686 20.718 8.04582 20.8928 7.60658 20.8936V20.8936Z" fill="#333333"/>
</g>
<defs>
<clipPath id="clip0_129_11092">
<rect width="22.725" height="22.725" fill="white" transform="translate(0.663147 0.0620117)"/>
</clipPath>
</defs>
</svg>
