<svg width="7" height="12" viewBox="0 0 7 12" fill="none" xmlns="http://www.w3.org/2000/svg">
<path d="M1.15752 0.967577C1.08722 1.0373 1.03142 1.12025 0.993348 1.21164C0.955272 1.30304 0.935669 1.40107 0.935669 1.50008C0.935669 1.59908 0.955272 1.69711 0.993348 1.78851C1.03142 1.8799 1.08722 1.96285 1.15752 2.03258L4.59251 5.46758C4.66281 5.5373 4.7186 5.62025 4.75668 5.71164C4.79475 5.80304 4.81436 5.90107 4.81436 6.00008C4.81436 6.09909 4.79475 6.19711 4.75668 6.28851C4.7186 6.3799 4.66281 6.46285 4.59251 6.53258L1.15752 9.96758C1.08722 10.0373 1.03143 10.1202 0.993349 10.2116C0.955272 10.303 0.935669 10.4011 0.935669 10.5001C0.935669 10.5991 0.955272 10.6971 0.993349 10.7885C1.03143 10.8799 1.08722 10.9629 1.15752 11.0326C1.29804 11.1723 1.48813 11.2507 1.68627 11.2507C1.88441 11.2507 2.07449 11.1723 2.21502 11.0326L5.65751 7.59008C6.07886 7.1682 6.31553 6.59633 6.31553 6.00008C6.31553 5.40382 6.07886 4.83195 5.65751 4.41008L2.21501 0.967577C2.07449 0.827888 1.8844 0.749481 1.68627 0.749481C1.48813 0.749481 1.29804 0.827888 1.15752 0.967577Z" fill="#A0A0A0"/>
</svg>
