<svg width="20" height="11" viewBox="0 0 20 11" fill="none" xmlns="http://www.w3.org/2000/svg">
<path d="M19.2688 3.83222L16.0434 0.734359C15.966 0.660099 15.8738 0.601156 15.7722 0.560933C15.6707 0.520709 15.5617 0.5 15.4517 0.5C15.3417 0.5 15.2327 0.520709 15.1312 0.560933C15.0296 0.601156 14.9374 0.660099 14.86 0.734359V0.734359C14.7047 0.882805 14.6176 1.08361 14.6176 1.29293C14.6176 1.50224 14.7047 1.70305 14.86 1.85149L17.827 4.69582H0.833425C0.612387 4.69582 0.400402 4.7793 0.244105 4.92788C0.087807 5.07646 0 5.27799 0 5.48812H0C0 5.69825 0.087807 5.89977 0.244105 6.04835C0.400402 6.19694 0.612387 6.28041 0.833425 6.28041H17.877L14.86 9.14059C14.7819 9.21424 14.7198 9.30187 14.6775 9.39842C14.6352 9.49496 14.6134 9.59852 14.6134 9.70311C14.6134 9.80771 14.6352 9.91126 14.6775 10.0078C14.7198 10.1044 14.7819 10.192 14.86 10.2656C14.9374 10.3399 15.0296 10.3988 15.1312 10.4391C15.2327 10.4793 15.3417 10.5 15.4517 10.5C15.5617 10.5 15.6707 10.4793 15.7722 10.4391C15.8738 10.3988 15.966 10.3399 16.0434 10.2656L19.2688 7.19155C19.737 6.74588 20 6.14176 20 5.51188C20 4.88201 19.737 4.27789 19.2688 3.83222V3.83222Z" fill="white"/>
</svg>
