<svg width="50" height="54" viewBox="0 0 50 54" fill="none" xmlns="http://www.w3.org/2000/svg">
<path d="M47.4251 12.5033L26.8001 1.21812C26.249 0.913626 25.6297 0.753906 25.0001 0.753906C24.3705 0.753906 23.7512 0.913626 23.2001 1.21812L2.57512 12.508C1.98611 12.8302 1.49443 13.3047 1.15142 13.8819C0.808404 14.4591 0.626646 15.1178 0.625122 15.7892V38.2048C0.626646 38.8763 0.808404 39.5349 1.15142 40.1121C1.49443 40.6893 1.98611 41.1638 2.57512 41.4861L23.2001 52.7759C23.7512 53.0804 24.3705 53.2402 25.0001 53.2402C25.6297 53.2402 26.249 53.0804 26.8001 52.7759L47.4251 41.4861C48.0141 41.1638 48.5058 40.6893 48.8488 40.1121C49.1918 39.5349 49.3736 38.8763 49.3751 38.2048V15.7916C49.3749 15.119 49.1937 14.4588 48.8506 13.8803C48.5075 13.3017 48.0152 12.8261 47.4251 12.5033ZM25.0001 4.49937L43.8298 14.8119L36.8525 18.6322L18.0204 8.31968L25.0001 4.49937ZM25.0001 25.1244L6.17043 14.8119L14.1157 10.4619L32.9454 20.7744L25.0001 25.1244ZM4.37512 18.0931L23.1251 28.3541V48.4611L4.37512 38.2072V18.0931ZM45.6251 38.1978L26.8751 48.4611V28.3634L34.3751 24.2595V32.6244C34.3751 33.1217 34.5727 33.5986 34.9243 33.9502C35.2759 34.3018 35.7528 34.4994 36.2501 34.4994C36.7474 34.4994 37.2243 34.3018 37.576 33.9502C37.9276 33.5986 38.1251 33.1217 38.1251 32.6244V22.2064L45.6251 18.0931V38.1955V38.1978Z" fill="#0060C9"/>
</svg>
