<svg width="55" height="48" viewBox="0 0 55 48" fill="none" xmlns="http://www.w3.org/2000/svg">
<path d="M34.0209 12.6845C34.2028 12.0057 35.1659 12.0057 35.3478 12.6845C37.2846 19.9118 42.9479 25.5558 50.1784 27.479C50.8603 27.6603 50.8603 28.6301 50.1784 28.8115C42.9479 30.7346 37.2846 36.3786 35.3478 43.606C35.1659 44.2848 34.2028 44.2848 34.0209 43.606C32.0842 36.3786 26.4208 30.7346 19.1903 28.8115C18.5085 28.6301 18.5085 27.6603 19.1903 27.479C26.4208 25.5558 32.0842 19.9118 34.0209 12.6845Z" fill="#F1F3F4" stroke="#1E1E1E" stroke-width="0.75"/>
<path d="M22.3791 4.56859C22.56 3.89372 23.5176 3.89372 23.6984 4.56859C25.6281 11.7695 31.2708 17.3928 38.4748 19.3089C39.1528 19.4892 39.1528 20.4534 38.4748 20.6338C31.2708 22.5499 25.6281 28.1732 23.6984 35.3741C23.5176 36.0489 22.56 36.0489 22.3791 35.3741C20.4495 28.1732 14.8068 22.5499 7.60275 20.6338C6.92481 20.4534 6.92481 19.4892 7.60275 19.3089C14.8068 17.3928 20.4495 11.7695 22.3791 4.56859Z" stroke="#1E1E1E" stroke-width="0.75"/>
<path d="M36.009 6.51724C37.1911 6.26074 38.1179 5.3321 38.3736 4.14965C38.6294 5.3321 39.5562 6.26074 40.7382 6.51724C39.5562 6.77374 38.6294 7.70238 38.3736 8.88483C38.1179 7.70238 37.1911 6.77374 36.009 6.51724Z" fill="#F1F3F4" stroke="#1E1E1E" stroke-width="0.75"/>
<path d="M2.6754 13.8959C3.10546 13.6947 3.4525 13.3469 3.65331 12.9165C3.85413 13.3469 4.20117 13.6947 4.63122 13.8959C4.20117 14.0972 3.85413 14.445 3.65331 14.8753C3.4525 14.445 3.10546 14.0972 2.6754 13.8959Z" fill="#F1F3F4" stroke="#1E1E1E" stroke-width="0.75"/>
</svg>
