<svg width="58" height="24" viewBox="0 0 58 24" fill="none" xmlns="http://www.w3.org/2000/svg">
<g style="mix-blend-mode:luminosity">
<path fill-rule="evenodd" clip-rule="evenodd" d="M57.5272 12.4005C57.5272 8.29906 55.5457 5.06274 51.7586 5.06274C47.9554 5.06274 45.6543 8.29906 45.6543 12.3685C45.6543 17.1909 48.3709 19.6262 52.2699 19.6262C54.1715 19.6262 55.6097 19.1936 56.6963 18.5848V15.3805C55.6097 15.9252 54.3632 16.2617 52.7813 16.2617C51.2312 16.2617 49.857 15.717 49.6812 13.8264H57.4953C57.4953 13.6182 57.5272 12.7851 57.5272 12.4005ZM49.6332 10.8785C49.6332 9.06809 50.7358 8.31509 51.7426 8.31509C52.7173 8.31509 53.756 9.06809 53.756 10.8785H49.6332Z" fill="#A9A9A9"/>
<path fill-rule="evenodd" clip-rule="evenodd" d="M39.4862 5.06274C37.9201 5.06274 36.9134 5.79973 36.3541 6.31241L36.1464 5.31909H32.6309V24L36.6258 23.1509L36.6418 18.6168C37.217 19.0334 38.064 19.6262 39.4702 19.6262C42.3306 19.6262 44.9353 17.3191 44.9353 12.2403C44.9193 7.59412 42.2826 5.06274 39.4862 5.06274ZM38.5274 16.1015C37.5846 16.1015 37.0253 15.765 36.6418 15.3485L36.6258 9.40454C37.0413 8.93992 37.6165 8.61949 38.5274 8.61949C39.9815 8.61949 40.9883 10.2537 40.9883 12.3525C40.9883 14.4993 39.9975 16.1015 38.5274 16.1015Z" fill="#A9A9A9"/>
<path fill-rule="evenodd" clip-rule="evenodd" d="M27.1328 4.1175L31.1437 3.25234V0L27.1328 0.849133V4.1175Z" fill="#A9A9A9"/>
<path d="M31.1437 5.33508H27.1328V19.3538H31.1437V5.33508Z" fill="#A9A9A9"/>
<path fill-rule="evenodd" clip-rule="evenodd" d="M22.8343 6.52074L22.5786 5.33516H19.127V19.3539H23.1219V9.85319C24.0647 8.61955 25.6627 8.84385 26.158 9.02008V5.33516C25.6467 5.14291 23.7771 4.79043 22.8343 6.52074Z" fill="#A9A9A9"/>
<path fill-rule="evenodd" clip-rule="evenodd" d="M14.8447 1.85852L10.9457 2.69163L10.9297 15.5248C10.9297 17.8959 12.7034 19.6423 15.0684 19.6423C16.3788 19.6423 17.3376 19.4019 17.8649 19.1136V15.8612C17.3535 16.0695 14.8287 16.8065 14.8287 14.4353V8.74772H17.8649V5.33516H14.8287L14.8447 1.85852Z" fill="#A9A9A9"/>
<path fill-rule="evenodd" clip-rule="evenodd" d="M4.04287 9.40454C4.04287 8.77971 4.55422 8.53939 5.40115 8.53939C6.61561 8.53939 8.14966 8.90788 9.36412 9.56475V5.79973C8.03781 5.27102 6.72747 5.06274 5.40115 5.06274C2.15726 5.06274 0 6.76101 0 9.5968C0 14.0187 6.0723 13.3138 6.0723 15.2203C6.0723 15.9573 5.43311 16.1976 4.53824 16.1976C3.21193 16.1976 1.51807 15.6529 0.175777 14.9159V18.729C1.66189 19.3698 3.16399 19.6422 4.53824 19.6422C7.86203 19.6422 10.1471 17.992 10.1471 15.1242C10.1312 10.3498 4.04287 11.1989 4.04287 9.40454Z" fill="#A9A9A9"/>
</g>
</svg>
