<svg width="51" height="52" viewBox="0 0 51 52" fill="none" xmlns="http://www.w3.org/2000/svg">
<path d="M50.2725 10.7979C50.0965 10.5873 49.8763 10.4179 49.6277 10.3016C49.379 10.1854 49.1079 10.1252 48.8334 10.1252H11.024L9.59903 2.29009C9.52054 1.85806 9.29291 1.46728 8.95583 1.18588C8.61875 0.904479 8.1936 0.750308 7.7545 0.750244H1.9584C1.46112 0.750244 0.98421 0.947788 0.632579 1.29942C0.280949 1.65105 0.0834045 2.12796 0.0834045 2.62524C0.0834045 3.12252 0.280949 3.59944 0.632579 3.95107C0.98421 4.3027 1.46112 4.50024 1.9584 4.50024H6.17715L12.1678 37.3807C12.3442 38.3558 12.7752 39.2671 13.417 40.0221C12.5312 40.8495 11.8918 41.9061 11.5698 43.0746C11.2478 44.2432 11.2557 45.4781 11.5927 46.6425C11.9297 47.8068 12.5826 48.8551 13.4789 49.671C14.3753 50.487 15.4802 51.0387 16.671 51.2651C17.8618 51.4914 19.092 51.3836 20.2252 50.9534C21.3585 50.5233 22.3505 49.7877 23.0912 48.8282C23.8319 47.8687 24.2924 46.7229 24.4216 45.5176C24.5508 44.3124 24.3437 43.0949 23.8232 42.0002H34.4686C34.0491 42.8784 33.832 43.8395 33.8334 44.8127C33.8334 46.1107 34.2183 47.3795 34.9394 48.4587C35.6605 49.5379 36.6854 50.379 37.8845 50.8757C39.0837 51.3724 40.4032 51.5024 41.6762 51.2491C42.9492 50.9959 44.1185 50.3709 45.0363 49.4531C45.9541 48.5354 46.5791 47.366 46.8323 46.093C47.0855 44.82 46.9556 43.5005 46.4589 42.3014C45.9622 41.1022 45.121 40.0773 44.0418 39.3562C42.9626 38.6351 41.6938 38.2502 40.3959 38.2502H17.7014C17.2623 38.2502 16.8371 38.096 16.5 37.8146C16.163 37.5332 15.9353 37.1424 15.8568 36.7104L15.1139 32.6252H42.3014C43.6187 32.6251 44.8941 32.1625 45.9054 31.3183C46.9166 30.4741 47.5995 29.3018 47.835 28.0057L50.685 12.3354C50.7332 12.0646 50.7213 11.7864 50.65 11.5207C50.5787 11.255 50.4498 11.0082 50.2725 10.7979ZM20.7084 44.8127C20.7084 45.369 20.5435 45.9128 20.2344 46.3753C19.9254 46.8378 19.4861 47.1983 18.9722 47.4112C18.4583 47.624 17.8928 47.6797 17.3472 47.5712C16.8016 47.4627 16.3005 47.1948 15.9072 46.8015C15.5138 46.4081 15.246 45.907 15.1374 45.3614C15.0289 44.8159 15.0846 44.2504 15.2975 43.7365C15.5104 43.2225 15.8708 42.7833 16.3334 42.4742C16.7959 42.1652 17.3396 42.0002 17.8959 42.0002C18.6418 42.0002 19.3572 42.2966 19.8846 42.824C20.4121 43.3515 20.7084 44.0668 20.7084 44.8127ZM43.2084 44.8127C43.2084 45.369 43.0434 45.9128 42.7344 46.3753C42.4254 46.8378 41.9861 47.1983 41.4722 47.4112C40.9583 47.624 40.3928 47.6797 39.8472 47.5712C39.3016 47.4627 38.8005 47.1948 38.4072 46.8015C38.0138 46.4081 37.746 45.907 37.6374 45.3614C37.5289 44.8159 37.5846 44.2504 37.7975 43.7365C38.0104 43.2225 38.3708 42.7833 38.8334 42.4742C39.2959 42.1652 39.8396 42.0002 40.3959 42.0002C41.1418 42.0002 41.8572 42.2966 42.3846 42.824C42.9121 43.3515 43.2084 44.0668 43.2084 44.8127ZM44.1459 27.3354C44.0672 27.7686 43.8385 28.1603 43.5 28.4419C43.1615 28.7234 42.7346 28.8768 42.2943 28.8752H14.4318L11.7061 13.8752H46.5857L44.1459 27.3354Z" fill="#0060C9"/>
</svg>
