<svg width="14" height="10" viewBox="0 0 14 10" fill="none" xmlns="http://www.w3.org/2000/svg">
<path d="M4.85595 7.72301L1.70542 4.89419C1.55466 4.75887 1.35022 4.68285 1.13705 4.68285C0.923884 4.68285 0.719443 4.75887 0.568687 4.89419C0.417977 5.02955 0.333313 5.21312 0.333313 5.40452C0.333313 5.59592 0.417977 5.77949 0.568687 5.91485L3.71922 8.74367C3.86853 8.87778 4.0458 8.98417 4.24091 9.05676C4.43603 9.12935 4.64515 9.16671 4.85635 9.16671C5.06755 9.16671 5.27668 9.12935 5.47179 9.05676C5.6669 8.98417 5.84417 8.87778 5.99348 8.74367L13.4313 2.06537C13.582 1.93001 13.6666 1.74644 13.6666 1.55504C13.6666 1.36364 13.582 1.18008 13.4313 1.04471C13.2805 0.909393 13.0761 0.833374 12.8629 0.833374C12.6497 0.833374 12.4453 0.909393 12.2945 1.04471L4.85595 7.72301Z" fill="#FEFEFE"/>
</svg>
