<svg fill="#000000"
            height="20"
            width="20"
            viewBox="0 0 20 20"
            xmlns="http://www.w3.org/2000/svg"
          >
            <path
              d="M4.40832 13.1583C4.48579 13.2364 4.57796 13.2984 4.67951 13.3407C4.78106 13.383 4.88998 13.4048 4.99999 13.4048C5.11 13.4048 5.21892 13.383 5.32047 13.3407C5.42202 13.2984 5.51419 13.2364 5.59166 13.1583L9.40832 9.34163C9.48579 9.26352 9.57796 9.20153 9.67951 9.15922C9.78106 9.11691 9.88998 9.09513 9.99999 9.09513C10.11 9.09513 10.2189 9.11691 10.3205 9.15922C10.422 9.20153 10.5142 9.26352 10.5917 9.34163L14.4083 13.1583C14.4858 13.2364 14.578 13.2984 14.6795 13.3407C14.7811 13.383 14.89 13.4048 15 13.4048C15.11 13.4048 15.2189 13.383 15.3205 13.3407C15.422 13.2984 15.5142 13.2364 15.5917 13.1583C15.7469 13.0022 15.834 12.7909 15.834 12.5708C15.834 12.3506 15.7469 12.1394 15.5917 11.9833L11.7667 8.1583C11.2979 7.69013 10.6625 7.42717 9.99999 7.42717C9.33749 7.42717 8.70207 7.69013 8.23332 8.1583L4.40832 11.9833C4.25311 12.1394 4.16599 12.3506 4.16599 12.5708C4.16599 12.7909 4.25311 13.0022 4.40832 13.1583Z"
              fill="#1E1E1E"
            />
          </svg>