<svg width="20" height="20" viewBox="0 0 20 20" fill="none" xmlns="http://www.w3.org/2000/svg">
<path d="M10 10.0001C10.8241 10.0001 11.6297 9.75571 12.3149 9.29787C13.0001 8.84003 13.5342 8.18929 13.8495 7.42793C14.1649 6.66657 14.2474 5.82879 14.0866 5.02054C13.9259 4.21229 13.529 3.46986 12.9463 2.88714C12.3636 2.30442 11.6212 1.90758 10.8129 1.74681C10.0047 1.58604 9.16688 1.66855 8.40553 1.98392C7.64417 2.29928 6.99342 2.83334 6.53558 3.51854C6.07774 4.20374 5.83337 5.00933 5.83337 5.83342C5.83448 6.93815 6.27382 7.99731 7.05498 8.77847C7.83614 9.55964 8.89531 9.99898 10 10.0001ZM10 3.05564C10.5494 3.05564 11.0865 3.21855 11.5433 3.52378C12.0001 3.829 12.3561 4.26283 12.5664 4.77041C12.7766 5.27798 12.8316 5.8365 12.7244 6.37533C12.6173 6.91417 12.3527 7.40912 11.9642 7.7976C11.5757 8.18608 11.0808 8.45064 10.542 8.55782C10.0031 8.665 9.4446 8.60999 8.93703 8.39975C8.42946 8.1895 7.99563 7.83347 7.6904 7.37667C7.38518 6.91986 7.22226 6.38281 7.22226 5.83342C7.22226 5.0967 7.51492 4.39016 8.03585 3.86923C8.55679 3.3483 9.26333 3.05564 10 3.05564Z" fill="#111111"/>
<path d="M10 11.6667C8.23253 11.6685 6.53798 12.3012 5.28816 13.4261C4.03834 14.5509 3.33533 16.076 3.33337 17.6667C3.33337 17.8436 3.41142 18.0131 3.55033 18.1382C3.68925 18.2632 3.87766 18.3334 4.07411 18.3334C4.27057 18.3334 4.45898 18.2632 4.5979 18.1382C4.73681 18.0131 4.81486 17.8436 4.81486 17.6667C4.81486 16.4291 5.36115 15.2421 6.33356 14.3669C7.30597 13.4917 8.62484 13.0001 10 13.0001C11.3752 13.0001 12.6941 13.4917 13.6665 14.3669C14.6389 15.2421 15.1852 16.4291 15.1852 17.6667C15.1852 17.8436 15.2633 18.0131 15.4022 18.1382C15.5411 18.2632 15.7295 18.3334 15.926 18.3334C16.1224 18.3334 16.3108 18.2632 16.4497 18.1382C16.5887 18.0131 16.6667 17.8436 16.6667 17.6667C16.6647 16.076 15.9617 14.5509 14.7119 13.4261C13.4621 12.3012 11.7675 11.6685 10 11.6667Z" fill="#111111"/>
</svg>
