<svg width="30" height="29" viewBox="0 0 30 29" fill="none" xmlns="http://www.w3.org/2000/svg">
<path d="M14.1288 1.54558C14.5114 0.866931 15.4886 0.86693 15.8712 1.54557L19.8537 8.61139C19.9964 8.86456 20.2422 9.04313 20.5271 9.10061L28.4778 10.7048C29.2414 10.8589 29.5434 11.7883 29.0162 12.3618L23.5269 18.333C23.3302 18.5469 23.2363 18.8359 23.2697 19.1246L24.2009 27.1818C24.2903 27.9557 23.4997 28.5301 22.7913 28.2059L15.4162 24.8305C15.1519 24.7095 14.8481 24.7095 14.5838 24.8305L7.20868 28.2059C6.50032 28.5301 5.70969 27.9557 5.79913 27.1818L6.73033 19.1246C6.76369 18.8359 6.66981 18.5469 6.47312 18.333L0.983825 12.3619C0.456599 11.7883 0.758592 10.8589 1.52222 10.7048L9.4729 9.10061C9.75778 9.04313 10.0036 8.86456 10.1463 8.61139L14.1288 1.54558Z" stroke="#FFCC00"/>
</svg>
