<svg width="30" height="28" viewBox="0 0 30 28" fill="none" xmlns="http://www.w3.org/2000/svg">
<path d="M14.1288 0.545576C14.5114 -0.133069 15.4886 -0.13307 15.8712 0.545574L19.8537 7.61139C19.9964 7.86456 20.2422 8.04313 20.5271 8.10061L28.4778 9.70482C29.2414 9.8589 29.5434 10.7883 29.0162 11.3618L23.5269 17.333C23.3302 17.5469 23.2363 17.8359 23.2697 18.1246L24.2009 26.1818C24.2903 26.9557 23.4997 27.5301 22.7913 27.2059L15.4162 23.8305C15.1519 23.7095 14.8481 23.7095 14.5838 23.8305L7.20868 27.2059C6.50032 27.5301 5.70969 26.9557 5.79913 26.1818L6.73033 18.1246C6.76369 17.8359 6.66981 17.5469 6.47312 17.333L0.983825 11.3619C0.456599 10.7883 0.758592 9.8589 1.52222 9.70482L9.4729 8.10061C9.75778 8.04313 10.0036 7.86456 10.1463 7.61139L14.1288 0.545576Z" fill="#FFCC00"/>
</svg>
